<?xml version="1.0" encoding="UTF-8" standalone="no"?>
<svg width="100%" height="100%" viewBox="0 0 48 48" version="1.1" xmlns="http://www.w3.org/2000/svg" xmlns:xlink="http://www.w3.org/1999/xlink">
    <!-- Generator: Sketch 3.8.3 (29802) - http://www.bohemiancoding.com/sketch -->
    <title>bookmarks_angular_thin</title>
    <desc>Created with Sketch.</desc>
    <defs>
        <path d="M17,42 L0,42 L0,6 L19,6 C22.3137085,6 25,8.6862915 25,12 L25,48 L23,48 C23,44.6862915 20.3137085,42 17,42 Z" id="path-1"></path>
        <mask id="mask-2" maskContentUnits="userSpaceOnUse" maskUnits="objectBoundingBox" x="0" y="0" width="25" height="42" fill="white">
            <use xlink:href="#path-1"></use>
        </mask>
        <path d="M40,42 L23,42 L23,6 L42,6 C45.3137085,6 48,8.6862915 48,12 L48,48 L46,48 C46,44.6862915 43.3137085,42 40,42 Z" id="path-3"></path>
        <mask id="mask-4" maskContentUnits="userSpaceOnUse" maskUnits="objectBoundingBox" x="0" y="0" width="25" height="42" fill="white">
            <use xlink:href="#path-3"></use>
        </mask>
    </defs>
    <g id="Page-1" stroke="none" stroke-width="1" fill="none" fill-rule="evenodd">
        <g id="Group" stroke="#000000" stroke-width="4">
            <use id="Combined-Shape" mask="url(#mask-2)" xlink:href="#path-1"></use>
            <use id="Combined-Shape" mask="url(#mask-4)" transform="translate(35.500000, 27.000000) scale(-1, 1) translate(-35.500000, -27.000000) " xlink:href="#path-3"></use>
        </g>
    </g>
</svg>