<?xml version="1.0" encoding="UTF-8" standalone="no"?>
<svg width="100%" height="100%" viewBox="0 0 48 48" version="1.1" xmlns="http://www.w3.org/2000/svg" xmlns:xlink="http://www.w3.org/1999/xlink">
    <!-- Generator: Sketch 3.8.3 (29802) - http://www.bohemiancoding.com/sketch -->
    <title>duplicate2_angular_thin</title>
    <desc>Created with Sketch.</desc>
    <defs></defs>
    <g id="Page-1" stroke="none" stroke-width="1" fill="none" fill-rule="evenodd" stroke-linecap="square">
        <g id="Group" stroke="#000000" stroke-width="2">
            <path d="M30,21 L30,39" id="Line"></path>
            <path d="M30,21 L30,39" id="Line" transform="translate(30.000000, 30.000000) rotate(90.000000) translate(-30.000000, -30.000000) "></path>
            <path d="M47,47 L47,13" id="Line" transform="translate(47.000000, 30.000000) scale(-1, 1) translate(-47.000000, -30.000000) "></path>
            <path d="M13,47 L13,13" id="Line" transform="translate(13.000000, 30.000000) scale(-1, 1) translate(-13.000000, -30.000000) "></path>
            <path d="M30,30 L30,-4" id="Line" transform="translate(30.000000, 13.000000) scale(-1, 1) rotate(90.000000) translate(-30.000000, -13.000000) "></path>
            <path d="M30,64 L30,30" id="Line" transform="translate(30.000000, 47.000000) scale(-1, 1) rotate(90.000000) translate(-30.000000, -47.000000) "></path>
            <path d="M35,9 L35,1" id="Line" transform="translate(35.000000, 5.000000) scale(-1, 1) translate(-35.000000, -5.000000) "></path>
            <path d="M1,35 L1,1" id="Line" transform="translate(1.000000, 18.000000) scale(-1, 1) translate(-1.000000, -18.000000) "></path>
            <path d="M18,18 L18,-16" id="Line" transform="translate(18.000000, 1.000000) scale(-1, 1) rotate(90.000000) translate(-18.000000, -1.000000) "></path>
            <path d="M5,39 L5,31" id="Line" transform="translate(5.000000, 35.000000) scale(-1, 1) rotate(90.000000) translate(-5.000000, -35.000000) "></path>
        </g>
    </g>
</svg>