<?xml version="1.0" encoding="UTF-8" standalone="no"?>
<svg width="100%" height="100%" viewBox="0 0 48 48" version="1.1" xmlns="http://www.w3.org/2000/svg" xmlns:xlink="http://www.w3.org/1999/xlink">
    <!-- Generator: Sketch 3.8.3 (29802) - http://www.bohemiancoding.com/sketch -->
    <title>duplicate2_rounded_thin</title>
    <desc>Created with Sketch.</desc>
    <defs></defs>
    <g id="Page-1" stroke="none" stroke-width="1" fill="none" fill-rule="evenodd" stroke-linecap="round">
        <g id="Group" stroke="#000000" stroke-width="2">
            <path d="M47,47 L47,9" id="Line" transform="translate(47.000000, 28.000000) scale(-1, 1) translate(-47.000000, -28.000000) "></path>
            <path d="M9,47 L9,9" id="Line" transform="translate(9.000000, 28.000000) scale(-1, 1) translate(-9.000000, -28.000000) "></path>
            <path d="M27.5,28.5 L27.5,-9.5" id="Line" transform="translate(28.000000, 9.500000) scale(-1, 1) rotate(90.000000) translate(-28.000000, -9.500000) "></path>
            <path d="M28,17 L28,39" id="Line"></path>
            <path d="M28,17 L28,39" id="Line" transform="translate(28.000000, 28.000000) rotate(90.000000) translate(-28.000000, -28.000000) "></path>
            <path d="M28,66 L28,28" id="Line" transform="translate(28.000000, 47.000000) scale(-1, 1) rotate(90.000000) translate(-28.000000, -47.000000) "></path>
            <path d="M39,5 L39,1" id="Line" transform="translate(39.000000, 3.000000) scale(-1, 1) translate(-39.000000, -3.000000) "></path>
            <path d="M1,39 L1,1" id="Line" transform="translate(1.000000, 20.000000) scale(-1, 1) translate(-1.000000, -20.000000) "></path>
            <path d="M19.5,20.5 L19.5,-17.5" id="Line" transform="translate(20.000000, 1.500000) scale(-1, 1) rotate(90.000000) translate(-20.000000, -1.500000) "></path>
            <path d="M3,41 L3,37" id="Line" transform="translate(2.500000, 38.500000) scale(-1, 1) rotate(90.000000) translate(-2.500000, -38.500000) "></path>
        </g>
    </g>
</svg>