<?xml version="1.0" encoding="UTF-8" standalone="no"?>
<svg width="100%" height="100%" viewBox="0 0 48 48" version="1.1" xmlns="http://www.w3.org/2000/svg" xmlns:xlink="http://www.w3.org/1999/xlink">
    <!-- Generator: Sketch 3.8.3 (29802) - http://www.bohemiancoding.com/sketch -->
    <title>duplicate_rounded_bold</title>
    <desc>Created with Sketch.</desc>
    <defs></defs>
    <g id="Page-1" stroke="none" stroke-width="1" fill="none" fill-rule="evenodd" stroke-linecap="round">
        <g id="Group-2" stroke="#000000" stroke-width="4">
            <path d="M46,46 L46,14" id="Line" transform="translate(46.000000, 30.000000) scale(-1, 1) translate(-46.000000, -30.000000) "></path>
            <path d="M14,46 L14,14" id="Line" transform="translate(14.000000, 30.000000) scale(-1, 1) translate(-14.000000, -30.000000) "></path>
            <path d="M30,30 L30,-2" id="Line" transform="translate(30.000000, 14.000000) scale(-1, 1) rotate(90.000000) translate(-30.000000, -14.000000) "></path>
            <path d="M30,62 L30,30" id="Line" transform="translate(30.000000, 46.000000) scale(-1, 1) rotate(90.000000) translate(-30.000000, -46.000000) "></path>
            <path d="M34,14 L34,2" id="Line" transform="translate(34.000000, 8.000000) scale(-1, 1) translate(-34.000000, -8.000000) "></path>
            <path d="M2,34 L2,2" id="Line" transform="translate(2.000000, 18.000000) scale(-1, 1) translate(-2.000000, -18.000000) "></path>
            <path d="M18,18 L18,-14" id="Line" transform="translate(18.000000, 2.000000) scale(-1, 1) rotate(90.000000) translate(-18.000000, -2.000000) "></path>
            <path d="M7,41 L7,29" id="Line" transform="translate(7.500000, 34.500000) scale(-1, 1) rotate(90.000000) translate(-7.500000, -34.500000) "></path>
            <path d="M30,22 L30,38" id="Line"></path>
            <path d="M30,22 L30,38" id="Line" transform="translate(30.000000, 30.000000) rotate(90.000000) translate(-30.000000, -30.000000) "></path>
        </g>
    </g>
</svg>