<?xml version="1.0" encoding="UTF-8" standalone="no"?>
<svg width="100%" height="100%" viewBox="0 0 48 48" version="1.1" xmlns="http://www.w3.org/2000/svg" xmlns:xlink="http://www.w3.org/1999/xlink">
    <!-- Generator: Sketch 3.8.3 (29802) - http://www.bohemiancoding.com/sketch -->
    <title>iosshare_rounded_bold</title>
    <desc>Created with Sketch.</desc>
    <defs></defs>
    <g id="Page-1" stroke="none" stroke-width="1" fill="none" fill-rule="evenodd" stroke-linecap="round">
        <g id="Group" stroke="#000000" stroke-width="4">
            <path d="M24,32 L24,60" id="Line" transform="translate(24.000000, 46.000000) rotate(90.000000) translate(-24.000000, -46.000000) "></path>
            <path d="M9,18 L9,46" id="Line" transform="translate(9.500000, 32.000000) rotate(180.000000) translate(-9.500000, -32.000000) "></path>
            <path d="M14,15 L14,23" id="Line" transform="translate(13.500000, 18.500000) rotate(270.000000) translate(-13.500000, -18.500000) "></path>
            <path d="M33.5,13.5 L33.5,21.5" id="Line" transform="translate(34.000000, 17.500000) rotate(270.000000) translate(-34.000000, -17.500000) "></path>
            <path d="M39,18 L39,46" id="Line" transform="translate(38.500000, 32.000000) rotate(180.000000) translate(-38.500000, -32.000000) "></path>
            <g id="Group-23" transform="translate(24.000000, 17.000000) scale(1, -1) translate(-24.000000, -17.000000) translate(16.000000, 2.000000)">
                <path d="M8,0 L8,30" id="Line"></path>
                <path d="M8,30 L16,22" id="Line"></path>
                <path d="M0,30 L8,22" id="Line" transform="translate(4.000000, 26.000000) rotate(90.000000) translate(-4.000000, -26.000000) "></path>
            </g>
        </g>
    </g>
</svg>