<?xml version="1.0" encoding="UTF-8" standalone="no"?>
<svg width="100%" height="100%" viewBox="0 0 48 48" version="1.1" xmlns="http://www.w3.org/2000/svg" xmlns:xlink="http://www.w3.org/1999/xlink">
    <!-- Generator: Sketch 3.8.3 (29802) - http://www.bohemiancoding.com/sketch -->
    <title>minimize3_rounded_bold</title>
    <desc>Created with Sketch.</desc>
    <defs></defs>
    <g id="Page-1" stroke="none" stroke-width="1" fill="none" fill-rule="evenodd" stroke-linecap="round">
        <g id="Group" stroke="#000000" stroke-width="4">
            <path d="M18,46 L18,30" id="Line" transform="translate(18.000000, 38.000000) rotate(-180.000000) translate(-18.000000, -38.000000) "></path>
            <path d="M18,18 L18,2" id="Line" transform="translate(18.000000, 10.000000) rotate(-180.000000) translate(-18.000000, -10.000000) "></path>
            <path d="M9.5,38.5 L9.5,22.5" id="Line" transform="translate(9.500000, 30.000000) rotate(-90.000000) translate(-9.500000, -30.000000) "></path>
            <path d="M9.5,26.5 L9.5,10.5" id="Line" transform="translate(9.500000, 18.000000) rotate(-90.000000) translate(-9.500000, -18.000000) "></path>
            <path d="M30,19 L30,3" id="Line" transform="translate(30.000000, 10.500000) rotate(-180.000000) translate(-30.000000, -10.500000) "></path>
            <path d="M30,47 L30,31" id="Line" transform="translate(30.000000, 38.500000) rotate(-180.000000) translate(-30.000000, -38.500000) "></path>
            <path d="M38.5,25.5 L38.5,9.5" id="Line" transform="translate(38.500000, 18.000000) rotate(-90.000000) translate(-38.500000, -18.000000) "></path>
            <path d="M38.5,37.5 L38.5,21.5" id="Line" transform="translate(38.500000, 30.000000) rotate(-90.000000) translate(-38.500000, -30.000000) "></path>
        </g>
    </g>
</svg>