<?xml version="1.0" encoding="UTF-8" standalone="no"?>
<svg width="100%" height="100%" viewBox="0 0 48 48" version="1.1" xmlns="http://www.w3.org/2000/svg" xmlns:xlink="http://www.w3.org/1999/xlink">
    <!-- Generator: Sketch 3.8.3 (29802) - http://www.bohemiancoding.com/sketch -->
    <title>people_rounded_bold</title>
    <desc>Created with Sketch.</desc>
    <defs>
        <path d="M16,24 C22.627417,24 28,18.627417 28,12 C28,5.372583 22.627417,0 16,0 C9.372583,0 4,5.372583 4,12 C4,18.627417 9.372583,24 16,24 Z" id="path-1"></path>
        <mask id="mask-2" maskContentUnits="userSpaceOnUse" maskUnits="objectBoundingBox" x="0" y="0" width="24" height="24" fill="white">
            <use xlink:href="#path-1"></use>
        </mask>
        <path d="M16,4 L16,0 L24,0 C30.627417,0 36,5.372583 36,12 C36,18.627417 30.627417,24 24,24 L16,24 L16,20 C20.418278,20 24,16.418278 24,12 C24,7.581722 20.418278,4 16,4 Z" id="path-3"></path>
        <mask id="mask-4" maskContentUnits="userSpaceOnUse" maskUnits="objectBoundingBox" x="0" y="0" width="20" height="24" fill="white">
            <use xlink:href="#path-3"></use>
        </mask>
        <path d="M24,4 L24,0 L32,0 C38.627417,0 44,5.372583 44,12 C44,18.627417 38.627417,24 32,24 L24,24 L24,20 C28.418278,20 32,16.418278 32,12 C32,7.581722 28.418278,4 24,4 Z" id="path-5"></path>
        <mask id="mask-6" maskContentUnits="userSpaceOnUse" maskUnits="objectBoundingBox" x="0" y="0" width="20" height="24" fill="white">
            <use xlink:href="#path-5"></use>
        </mask>
        <path d="M18,48 L40,48 L40,36 C40,27.163444 32.836556,20 24,20 C19.7412813,20 15.8711751,21.6638483 13.0042728,24.3769536 C13.9618459,24.1308694 14.9656399,24 16,24 C22.627417,24 28,29.372583 28,36 L28,48 L18,48 Z" id="path-7"></path>
        <mask id="mask-8" maskContentUnits="userSpaceOnUse" maskUnits="objectBoundingBox" x="0" y="0" width="26.9957272" height="28" fill="white">
            <use xlink:href="#path-7"></use>
        </mask>
    </defs>
    <g id="Page-1" stroke="none" stroke-width="1" fill="none" fill-rule="evenodd">
        <g id="Group" stroke="#000000">
            <use id="Oval-185" mask="url(#mask-2)" stroke-width="8" xlink:href="#path-1"></use>
            <use id="Combined-Shape" mask="url(#mask-4)" stroke-width="8" xlink:href="#path-3"></use>
            <use id="Combined-Shape" mask="url(#mask-6)" stroke-width="8" xlink:href="#path-5"></use>
            <path d="M30,36 C30,28.2680135 23.7319865,22 16,22 C8.2680135,22 2,28.2680135 2,36 L2,46 L30,46 L30,36 Z" id="Combined-Shape" stroke-width="4" stroke-linejoin="round"></path>
            <use id="Combined-Shape" mask="url(#mask-8)" stroke-width="8" xlink:href="#path-7"></use>
            <path d="M38.0026047,45.9978636 L46,45.9978636 L46,36.2470957 C46.0014223,36.1649011 46.0021364,36.082534 46.0021364,36 C46.0021364,28.2668336 39.7331664,21.9978636 32,21.9978636 C30.6086963,21.9978636 29.2647873,22.2007838 27.9962539,22.578643 C33.7811567,24.2985425 38,29.6565894 38,36 L38.0026047,45.9978636 Z" id="Combined-Shape" stroke-width="4" stroke-linejoin="round"></path>
        </g>
    </g>
</svg>