<?xml version="1.0" encoding="UTF-8"?>
<svg width="100%" height="100%" viewBox="0 0 64 64" version="1.1" xmlns="http://www.w3.org/2000/svg" xmlns:xlink="http://www.w3.org/1999/xlink">
    <!-- Generator: Sketch 42 (36781) - http://www.bohemiancoding.com/sketch -->
    <title>Persoonlijk</title>
    <desc>Created with Sketch.</desc>
    <defs>
        <path d="M32,32 C40.836556,32 48,24.836556 48,16 C48,7.163444 40.836556,0 32,0 C23.163444,0 16,7.163444 16,16 C16,24.836556 23.163444,32 32,32 Z" id="path-1"></path>
        <mask id="mask-2" maskContentUnits="userSpaceOnUse" maskUnits="objectBoundingBox" x="0" y="0" width="32" height="32" fill="white">
            <use xlink:href="#path-1"></use>
        </mask>
        <path d="M12.024565,49 C12.5455963,38.4188885 21.2896298,30 32,30 C42.7103702,30 51.4544037,38.4188885 51.975435,49 L52,49 L52,64 L12,64 L12,49 L12.024565,49 Z" id="path-3"></path>
        <mask id="mask-4" maskContentUnits="userSpaceOnUse" maskUnits="objectBoundingBox" x="0" y="0" width="40" height="34" fill="white">
            <use xlink:href="#path-3"></use>
        </mask>
    </defs>
    <g id="Page-1" stroke="none" stroke-width="1" fill="none" fill-rule="evenodd">
        <g id="ARVA-KIT-Icons" transform="translate(-1030.000000, -378.000000)" stroke="#000000" stroke-width="4">
            <g id="Group" transform="translate(1030.000000, 378.000000)">
                <use id="Oval-185" mask="url(#mask-2)" xlink:href="#path-1"></use>
                <use id="Combined-Shape" mask="url(#mask-4)" xlink:href="#path-3"></use>
            </g>
        </g>
    </g>
</svg>