<?xml version="1.0" encoding="UTF-8"?>
<svg width="100%" height="100%" viewBox="0 0 64 64" version="1.1" xmlns="http://www.w3.org/2000/svg" xmlns:xlink="http://www.w3.org/1999/xlink">
    <!-- Generator: Sketch 41.2 (35397) - http://www.bohemiancoding.com/sketch -->
    <title>Ontvangen</title>
    <desc>Created with Sketch.</desc>
    <defs></defs>
    <g id="Page-1" stroke="none" stroke-width="1" fill="none" fill-rule="evenodd" stroke-linecap="square">
        <g id="ARVA-KIT-Icons" transform="translate(-1030.000000, -310.000000)" stroke="#000000" stroke-width="2">
            <g id="Group" transform="translate(1030.000000, 310.000000)">
                <path d="M32.5,43.5 L32.5,81.5" id="Line" transform="translate(32.000000, 62.500000) rotate(90.000000) translate(-32.000000, -62.500000) "></path>
                <path d="M12,25 L12,63" id="Line" transform="translate(12.500000, 44.000000) rotate(180.000000) translate(-12.500000, -44.000000) "></path>
                <path d="M20,18 L20,32" id="Line" transform="translate(20.000000, 25.000000) rotate(270.000000) translate(-20.000000, -25.000000) "></path>
                <path d="M44,18 L44,32" id="Line" transform="translate(44.000000, 25.000000) rotate(270.000000) translate(-44.000000, -25.000000) "></path>
                <path d="M52,26 L52,64" id="Line" transform="translate(51.500000, 44.500000) rotate(180.000000) translate(-51.500000, -44.500000) "></path>
                <g id="Group-23" transform="translate(32.000000, 24.500000) scale(1, -1) rotate(-180.000000) translate(-32.000000, -24.500000) translate(21.000000, 0.500000)">
                    <path d="M11,0.5 L11,46.5" id="Line"></path>
                    <path d="M11,48 L21.7529066,37.2470934" id="Line"></path>
                    <path d="M0.223868969,47.776131 L11,37" id="Line" transform="translate(5.500000, 42.500000) rotate(90.000000) translate(-5.500000, -42.500000) "></path>
                </g>
            </g>
        </g>
    </g>
</svg>